<svg width="24" height="24" viewBox="0 0 24 24" fill="none" xmlns="http://www.w3.org/2000/svg">
<path fill-rule="evenodd" clip-rule="evenodd" d="M22.6485 1.35147C23.1172 1.8201 23.1172 2.5799 22.6485 3.04853L13.6971 12L22.6485 20.9515C23.1172 21.4201 23.1172 22.1799 22.6485 22.6485C22.1799 23.1172 21.4201 23.1172 20.9515 22.6485L12 13.6971L3.04853 22.6485C2.5799 23.1172 1.8201 23.1172 1.35147 22.6485C0.882842 22.1799 0.882842 21.4201 1.35147 20.9515L10.3029 12L1.35147 3.04853C0.882843 2.5799 0.882843 1.8201 1.35147 1.35147C1.8201 0.882843 2.5799 0.882843 3.04853 1.35147L12 10.3029L20.9515 1.35147C21.4201 0.882843 22.1799 0.882843 22.6485 1.35147Z" fill="#212121"/>
</svg>
